<svg width="124" height="124" viewBox="0 0 124 124" fill="none" xmlns="http://www.w3.org/2000/svg">
<path d="M61.6548 49.2142C57.7383 43.7371 49.5936 43.7424 45.6863 49.2261C44.3756 51.0651 43.7395 53.3 43.8854 55.5536C44.0312 57.8072 44.9501 59.9415 46.487 61.5962L61.3104 77.5568C61.4333 77.6891 61.5822 77.7946 61.7477 77.8668C61.9132 77.939 62.0919 77.9763 62.2724 77.9764C62.453 77.9766 62.6317 77.9395 62.7973 77.8675C62.9629 77.7955 63.112 77.6902 63.2351 77.5581L78.0493 61.6527C79.6022 59.985 80.5278 57.8298 80.6679 55.5553C80.8079 53.2808 80.1537 51.0283 78.8171 49.1827C74.8598 43.7201 66.7007 43.774 62.8157 49.2892L62.2675 50.0688L61.6548 49.2142Z" fill="#DD0000"/>
<path d="M82.3817 94.1724C82.6481 93.9951 82.9477 93.9399 83.2805 94.0067C83.6221 94.0869 83.8949 94.2801 84.0988 94.5865C84.3115 94.9061 84.4421 95.2901 84.4906 95.7383C84.539 96.1866 84.6785 96.5838 84.909 96.9301C85.0952 97.2099 85.4301 97.381 85.9137 97.4435C85.9627 97.1994 85.9962 96.9177 86.0142 96.5982C86.0411 96.292 86.0435 95.9925 86.0216 95.6996C85.9952 95.4289 85.9332 95.2202 85.8357 95.0737L85.7492 94.9871C85.5496 94.8893 85.3966 94.7605 85.2902 94.6007C85.175 94.4275 85.1286 94.2278 85.1509 94.0015C85.1733 93.7752 85.3043 93.5823 85.5441 93.4227C85.7705 93.272 85.9814 93.2278 86.1766 93.2901C86.3806 93.3657 86.5536 93.51 86.6954 93.7232C86.8904 94.0162 86.9766 94.5066 86.9539 95.1944C86.9267 95.9044 86.7997 96.6232 86.5728 97.3508C86.9234 97.2712 87.2319 97.1427 87.4983 96.9654C88.0045 96.6286 88.3066 96.1873 88.4046 95.6415C88.5115 95.1091 88.4099 94.581 88.0997 94.0571C89.222 94.5017 90.2333 95.0971 91.1336 95.8434C92.0294 96.6118 92.823 97.5154 93.5145 98.5544C93.94 99.1937 94.2479 99.8729 94.4381 100.592C94.6284 101.311 94.7077 102.008 94.6761 102.682C94.6445 103.357 94.5087 103.947 94.2687 104.453C94.2204 103.716 94.0812 103.03 93.8509 102.395C93.6162 101.783 93.2728 101.137 92.8207 100.458C92.3066 99.685 91.6813 99.0921 90.945 98.6788C90.2087 98.2656 89.4256 98.0564 88.5958 98.0513C87.7526 98.0551 86.927 98.2874 86.119 98.7483L86.8371 99.8272C87.4098 99.5614 87.8514 99.402 88.1621 99.349C88.1664 99.4998 88.1752 99.6285 88.1884 99.7351C88.1883 99.8504 88.1971 99.9503 88.2148 100.035C88.9782 99.911 89.7214 100.003 90.4445 100.309C91.1764 100.629 91.7685 101.129 92.2206 101.808C92.7259 102.568 92.9471 103.391 92.8843 104.278C92.817 105.188 92.5035 105.973 91.9439 106.634C92.1745 106.865 92.3718 107.003 92.536 107.047C92.7001 107.092 92.8888 107.043 93.1019 106.901L93.3545 107.281C93.0748 107.467 92.8771 107.762 92.7614 108.166C92.6457 108.569 92.4947 108.833 92.3082 108.957C92.1217 109.082 91.7999 109.132 91.3429 109.11C90.8858 109.087 90.5174 109.169 90.2377 109.355L89.9851 108.976C90.1982 108.834 90.3159 108.678 90.3382 108.51C90.3606 108.341 90.3097 108.106 90.1857 107.804C89.3468 108.074 88.5014 108.06 87.6496 107.762C86.8067 107.478 86.1326 106.956 85.6273 106.196C85.1752 105.517 84.9472 104.785 84.9434 103.999C84.9396 103.214 85.1376 102.486 85.5375 101.816L84.9254 101.503C85.0676 101.255 85.3852 100.909 85.8781 100.465L85.16 99.3866C84.4229 99.954 83.8966 100.621 83.5809 101.389C83.2652 102.156 83.1559 102.959 83.2528 103.798C83.3365 104.646 83.6354 105.456 84.1496 106.229C84.6017 106.908 85.0716 107.47 85.5594 107.914C86.0427 108.38 86.6149 108.778 87.2758 109.107C86.7078 109.119 86.1066 109.01 85.4722 108.779C84.8378 108.548 84.2257 108.206 83.6358 107.752C83.0548 107.313 82.5516 106.773 82.1261 106.134C81.4346 105.095 80.9074 104.014 80.5444 102.891C80.1903 101.781 80.0314 100.618 80.0679 99.4025C80.4314 99.891 80.8793 100.189 81.4118 100.296C81.9531 100.416 82.4768 100.307 82.9829 99.9706C83.2493 99.7933 83.4869 99.5583 83.6957 99.2656C82.9458 99.2073 82.2448 99.0492 81.5927 98.7913C80.9361 98.5556 80.5058 98.2846 80.3019 97.9783C80.1601 97.7651 80.0937 97.5499 80.1028 97.3324C80.1207 97.1283 80.2428 96.9509 80.4693 96.8002C80.709 96.6406 80.9376 96.5942 81.155 96.661C81.3724 96.7277 81.5387 96.8476 81.6539 97.0208C81.7515 97.1673 81.809 97.3116 81.8267 97.4536C81.8177 97.5556 81.8354 97.64 81.8797 97.7066C81.9772 97.8531 82.1524 97.9864 82.4053 98.1064C82.6537 98.2486 82.9243 98.3664 83.2171 98.4598C83.5188 98.5665 83.7916 98.6444 84.0356 98.6934C84.1824 98.2498 84.1539 97.8748 83.95 97.5684C83.7195 97.2221 83.4069 96.9401 83.0121 96.7223C82.6173 96.5046 82.3135 96.2358 82.1008 95.9162C81.9058 95.6231 81.8372 95.3036 81.8952 94.9575C81.9398 94.6203 82.102 94.3586 82.3817 94.1724ZM88.407 101.06C88.6548 102.01 89.1111 102.984 89.776 103.983C90.2547 104.702 90.7334 105.335 91.2123 105.881C91.6254 105.376 91.8455 104.797 91.8726 104.144C91.8953 103.514 91.7249 102.926 91.3615 102.38C91.0335 101.887 90.6055 101.519 90.0776 101.274C89.5586 101.043 89.0017 100.972 88.407 101.06ZM86.4091 102.39C86.0892 102.891 85.9401 103.432 85.9618 104.013C85.9836 104.595 86.1584 105.132 86.4864 105.625C86.8499 106.171 87.3333 106.551 87.9366 106.764C88.5355 107 89.1479 107.025 89.7737 106.839C89.4991 106.253 89.1002 105.567 88.5772 104.781C87.8857 103.742 87.163 102.945 86.4091 102.39Z" fill="black"/>
<path d="M61.9974 99.7802C62.3173 99.7712 62.6005 99.8834 62.8471 100.117C63.0942 100.366 63.2228 100.674 63.2331 101.042C63.2438 101.426 63.1508 101.821 62.954 102.226C62.7573 102.632 62.6647 103.043 62.6763 103.459C62.6857 103.795 62.8787 104.117 63.2555 104.427C63.4265 104.246 63.6044 104.025 63.7892 103.764C63.9745 103.518 64.1355 103.266 64.2723 103.006C64.3935 102.762 64.4517 102.553 64.4468 102.377L64.4195 102.258C64.3021 102.069 64.2408 101.878 64.2355 101.686C64.2297 101.479 64.2963 101.285 64.4353 101.105C64.5743 100.925 64.7878 100.831 65.0757 100.823C65.3476 100.815 65.5497 100.89 65.6821 101.046C65.815 101.218 65.885 101.432 65.8921 101.688C65.902 102.04 65.7148 102.502 65.3305 103.072C64.9308 103.66 64.4417 104.202 63.8633 104.698C64.2028 104.817 64.5324 104.871 64.8523 104.863C65.4601 104.846 65.9503 104.632 66.323 104.221C66.6961 103.827 66.8902 103.325 66.9052 102.716C67.6206 103.689 68.1619 104.73 68.529 105.84C68.8806 106.967 69.0738 108.154 69.1086 109.402C69.13 110.169 69.0306 110.908 68.8103 111.619C68.59 112.329 68.2876 112.962 67.9029 113.517C67.5182 114.072 67.09 114.5 66.6182 114.801C66.9682 114.151 67.214 113.496 67.3557 112.836C67.4818 112.192 67.5334 111.462 67.5107 110.647C67.4848 109.719 67.2694 108.885 66.8646 108.144C66.4598 107.403 65.907 106.81 65.2063 106.365C64.4897 105.921 63.6666 105.68 62.7372 105.642L62.7734 106.937C63.3998 107.016 63.8587 107.115 64.1502 107.235C64.0738 107.365 64.013 107.479 63.9676 107.576C63.9063 107.674 63.8608 107.763 63.8311 107.844C64.5437 108.144 65.1251 108.616 65.5752 109.26C66.0258 109.92 66.2625 110.657 66.2853 111.473C66.3107 112.385 66.0613 113.2 65.5372 113.919C64.9975 114.654 64.3152 115.153 63.4902 115.417C63.5631 115.735 63.6573 115.956 63.7728 116.081C63.8883 116.206 64.0741 116.265 64.33 116.258L64.3427 116.713C64.0068 116.723 63.6827 116.868 63.3704 117.149C63.0582 117.429 62.7901 117.573 62.5661 117.579C62.3422 117.585 62.0425 117.458 61.6671 117.196C61.2917 116.935 60.936 116.808 60.6001 116.818L60.5874 116.362C60.8433 116.355 61.0255 116.286 61.1338 116.155C61.2422 116.024 61.3239 115.797 61.379 115.476C60.5246 115.259 59.8155 114.799 59.2516 114.094C58.6882 113.406 58.3938 112.606 58.3683 111.694C58.3456 110.878 58.541 110.137 58.9545 109.469C59.368 108.801 59.922 108.289 60.6163 107.934L60.2637 107.343C60.516 107.208 60.9687 107.084 61.6218 106.969L61.5857 105.674C60.6598 105.764 59.8595 106.05 59.1847 106.533C58.5099 107.016 57.9911 107.639 57.6282 108.401C57.2493 109.164 57.0728 110.01 57.0987 110.937C57.1215 111.753 57.2218 112.478 57.3996 113.114C57.5618 113.765 57.8358 114.406 58.2215 115.035C57.7332 114.745 57.2815 114.333 56.8665 113.801C56.4515 113.268 56.1142 112.653 55.8547 111.956C55.5956 111.275 55.4553 110.551 55.4339 109.783C55.3991 108.536 55.5258 107.34 55.8139 106.195C56.1026 105.067 56.5849 103.997 57.261 102.986C57.3099 103.592 57.5317 104.082 57.9262 104.456C58.3213 104.845 58.8226 105.031 59.4304 105.014C59.7503 105.005 60.0764 104.932 60.4087 104.794C59.8039 104.347 59.2936 103.841 58.8777 103.277C58.4463 102.728 58.2254 102.27 58.2151 101.902C58.208 101.647 58.2659 101.429 58.389 101.249C58.5125 101.086 58.7102 101 58.9821 100.993C59.2699 100.985 59.4883 101.067 59.6372 101.239C59.786 101.41 59.8634 101.6 59.8692 101.808C59.8741 101.984 59.8463 102.137 59.7859 102.267C59.7242 102.349 59.6944 102.429 59.6966 102.509C59.7016 102.685 59.7793 102.891 59.93 103.127C60.0651 103.379 60.2319 103.623 60.4305 103.857C60.6296 104.108 60.8196 104.319 61.0004 104.49C61.3602 104.192 61.535 103.859 61.5247 103.491C61.5131 103.075 61.3978 102.67 61.1787 102.276C60.9596 101.882 60.8447 101.493 60.834 101.109C60.8242 100.757 60.9357 100.45 61.1684 100.187C61.3852 99.9253 61.6615 99.7895 61.9974 99.7802ZM63.45 108.815C63.156 109.752 63.0258 110.82 63.0592 112.019C63.0833 112.883 63.1534 113.673 63.2695 114.39C63.8879 114.181 64.3816 113.807 64.7507 113.269C65.1043 112.747 65.272 112.158 65.2537 111.502C65.2371 110.91 65.07 110.371 64.7523 109.883C64.435 109.412 64.0009 109.056 63.45 108.815ZM61.0509 108.882C60.5138 109.137 60.1003 109.517 59.8102 110.021C59.5202 110.525 59.3834 111.073 59.3999 111.665C59.4182 112.321 59.6264 112.899 60.0246 113.4C60.4072 113.918 60.913 114.264 61.5421 114.439C61.6202 113.796 61.6461 113.003 61.6198 112.059C61.585 110.812 61.3954 109.753 61.0509 108.882Z" fill="black"/>
<path d="M41.7438 93.7172C42.0196 93.8794 42.2002 94.1247 42.2855 94.4532C42.3626 94.7955 42.308 95.1253 42.1215 95.4426C41.9269 95.7736 41.6386 96.0589 41.2566 96.2983C40.8746 96.5377 40.5781 96.8367 40.3673 97.1954C40.1971 97.485 40.1895 97.861 40.3446 98.3234C40.5855 98.2609 40.8536 98.1679 41.1488 98.0445C41.436 97.9349 41.7065 97.8062 41.9603 97.6585C42.1923 97.5165 42.3529 97.3696 42.4421 97.2179L42.4822 97.1022C42.4829 96.88 42.532 96.6861 42.6293 96.5206C42.7347 96.3412 42.894 96.2122 43.1074 96.1334C43.3207 96.0547 43.5515 96.0883 43.7998 96.2342C44.0343 96.3721 44.1661 96.5424 44.1954 96.7452C44.2166 96.9618 44.1623 97.1804 44.0325 97.4011C43.8542 97.7046 43.4507 97.9963 42.822 98.2764C42.1715 98.5622 41.4695 98.7619 40.7159 98.8757C40.9407 99.1563 41.191 99.3777 41.4669 99.5399C41.991 99.848 42.52 99.9269 43.0537 99.7767C43.5793 99.6403 44.01 99.3181 44.3457 98.8101C44.4361 100.014 44.3424 101.184 44.0644 102.32C43.7646 103.461 43.2985 104.57 42.6661 105.646C42.2769 106.308 41.8005 106.881 41.2368 107.367C40.6731 107.852 40.081 108.228 39.4605 108.494C38.84 108.76 38.2499 108.896 37.6901 108.901C38.3317 108.536 38.8877 108.111 39.3581 107.626C39.8065 107.148 40.2375 106.557 40.651 105.853C41.1213 105.053 41.3815 104.232 41.4315 103.389C41.4815 102.546 41.3276 101.75 40.9696 101.001C40.5978 100.245 40.0282 99.6036 39.2606 99.0782L38.6038 100.195C39.0931 100.594 39.4295 100.922 39.6129 101.178C39.479 101.248 39.3671 101.312 39.2771 101.371C39.1733 101.421 39.0873 101.473 39.0192 101.525C39.4639 102.158 39.7063 102.866 39.7463 103.651C39.7781 104.449 39.5873 105.2 39.1738 105.903C38.7116 106.69 38.0677 107.248 37.2419 107.58C36.3943 107.917 35.551 107.978 34.7122 107.763C34.6052 108.071 34.5675 108.309 34.5992 108.476C34.6309 108.643 34.7571 108.792 34.9778 108.921L34.7467 109.314C34.457 109.144 34.1054 109.095 33.6917 109.168C33.2779 109.24 32.9745 109.219 32.7814 109.106C32.5883 108.992 32.4021 108.725 32.2227 108.304C32.0433 107.883 31.8087 107.587 31.5191 107.417L31.7501 107.024C31.9708 107.154 32.1619 107.192 32.3233 107.138C32.4847 107.085 32.6741 106.936 32.8914 106.693C32.282 106.056 31.9252 105.29 31.8211 104.393C31.7089 103.511 31.8839 102.676 32.3461 101.89C32.7596 101.186 33.3188 100.661 34.0236 100.315C34.7285 99.9682 35.4695 99.8285 36.2467 99.8956L36.2611 99.2081C36.5466 99.2274 36.9965 99.362 37.6107 99.6116L38.2674 98.4944C37.435 98.0793 36.6046 97.8974 35.7764 97.9488C34.9481 98.0001 34.178 98.2526 33.4658 98.7063C32.7399 99.1519 32.1418 99.7747 31.6715 100.575C31.258 101.278 30.9581 101.946 30.7717 102.579C30.5634 103.218 30.4557 103.906 30.4486 104.644C30.1889 104.139 30.0244 103.55 29.9553 102.879C29.8861 102.207 29.9264 101.507 30.0763 100.778C30.2181 100.064 30.4835 99.3753 30.8727 98.7132C31.5052 97.6373 32.2472 96.6908 33.0987 95.8736C33.9421 95.0702 34.9187 94.4193 36.0283 93.9209C35.7478 94.4613 35.6757 94.9943 35.8122 95.5199C35.9405 96.0594 36.2667 96.4831 36.7909 96.7912C37.0668 96.9534 37.382 97.0644 37.7365 97.1244C37.4613 96.4244 37.2972 95.7247 37.2442 95.0254C37.1694 94.3319 37.2252 93.8265 37.4117 93.5092C37.5414 93.2885 37.7061 93.1347 37.9056 93.0479C38.097 92.9748 38.31 93.0072 38.5445 93.145C38.7928 93.291 38.9344 93.4763 38.9693 93.701C39.0043 93.9257 38.9691 94.1277 38.8637 94.307C38.7745 94.4587 38.6699 94.5736 38.5498 94.6515C38.4541 94.688 38.386 94.7408 38.3454 94.8097C38.2562 94.9615 38.2129 95.1773 38.2154 95.4571C38.196 95.7427 38.2083 96.0376 38.2522 96.3418C38.288 96.6598 38.3371 96.9392 38.3997 97.1801C38.8629 97.1183 39.1877 96.9288 39.3742 96.6116C39.585 96.2529 39.7021 95.8485 39.7255 95.3983C39.7489 94.948 39.8579 94.5574 40.0525 94.2264C40.2309 93.9229 40.4884 93.7216 40.825 93.6226C41.1478 93.5154 41.4541 93.5469 41.7438 93.7172ZM38.1809 102.146C37.4348 102.784 36.7577 103.62 36.1495 104.655C35.7117 105.4 35.3517 106.107 35.0696 106.776C35.7049 106.927 36.3218 106.872 36.9204 106.611C37.4971 106.356 37.9517 105.946 38.2841 105.381C38.5841 104.87 38.7288 104.324 38.718 103.743C38.6992 103.175 38.5202 102.643 38.1809 102.146ZM36.1119 100.93C35.5213 100.861 34.9693 100.964 34.4559 101.237C33.9425 101.511 33.5357 101.903 33.2357 102.413C32.9033 102.978 32.7729 103.579 32.8445 104.215C32.8941 104.857 33.1393 105.419 33.5799 105.9C33.987 105.397 34.4298 104.739 34.9081 103.925C35.5406 102.849 35.9418 101.851 36.1119 100.93Z" fill="black"/>
<path d="M27.7936 77.8315C27.9413 78.1153 27.9642 78.4191 27.8622 78.7428C27.746 79.0739 27.5246 79.3244 27.1982 79.4943C26.8576 79.6717 26.4619 79.7605 26.0111 79.7607C25.5602 79.761 25.1503 79.8571 24.7813 80.0493C24.4833 80.2044 24.2773 80.5191 24.1635 80.9933C24.4009 81.0681 24.6774 81.1316 24.9932 81.1836C25.2947 81.2431 25.5923 81.2776 25.8858 81.2871C26.1578 81.2898 26.3719 81.2505 26.528 81.1692L26.6233 81.0925C26.7419 80.9045 26.8863 80.7661 27.0566 80.6775C27.2411 80.5814 27.4447 80.5566 27.6673 80.603C27.8899 80.6495 28.0677 80.8004 28.2007 81.0559C28.3263 81.2971 28.3477 81.5115 28.2649 81.6989C28.1679 81.8937 28.0059 82.0502 27.7788 82.1685C27.4666 82.331 26.9698 82.3642 26.2884 82.2681C25.5853 82.1651 24.8843 81.9619 24.1851 81.6585C24.2268 82.0156 24.3215 82.3361 24.4693 82.6199C24.75 83.1592 25.1565 83.5068 25.6886 83.6627C26.2066 83.8259 26.7426 83.7813 27.2966 83.5289C26.7345 84.5973 26.0343 85.5391 25.1961 86.3544C24.3362 87.1628 23.3529 87.8553 22.2459 88.4316C21.5647 88.7863 20.8565 89.0198 20.1212 89.132C19.386 89.2443 18.6847 89.2486 18.0175 89.1451C17.3502 89.0415 16.778 88.8433 16.3009 88.5506C17.0385 88.5814 17.7352 88.5163 18.391 88.3553C19.0251 88.1875 19.7041 87.9151 20.4279 87.5383C21.251 87.1097 21.9074 86.5515 22.397 85.8636C22.8867 85.1757 23.1784 84.4195 23.2722 83.595C23.3587 82.7562 23.216 81.9105 22.8442 81.0579L21.6947 81.6564C21.8977 82.2542 22.0089 82.7104 22.0284 83.025C21.8779 83.0131 21.749 83.0081 21.6417 83.0098C21.527 82.9974 21.4268 82.9955 21.3411 83.004C21.3824 83.7762 21.2118 84.5054 20.8295 85.1915C20.4329 85.8851 19.8728 86.4202 19.149 86.7971C18.3401 87.2183 17.4978 87.3502 16.6222 87.1928C15.7249 87.0286 14.9777 86.6329 14.3806 86.0058C14.1264 86.2104 13.9683 86.3919 13.9065 86.5503C13.8447 86.7088 13.8729 86.9015 13.9911 87.1286L13.5867 87.3392C13.4315 87.0412 13.1594 86.813 12.7704 86.6548C12.3813 86.4966 12.1351 86.3182 12.0316 86.1195C11.9282 85.9208 11.9121 85.5955 11.9834 85.1434C12.0547 84.6914 12.0128 84.3164 11.8576 84.0184L12.2621 83.8078C12.3803 84.0348 12.522 84.1685 12.6873 84.2087C12.8525 84.2489 13.0919 84.2235 13.4053 84.1325C13.2265 83.2695 13.3308 82.4305 13.7182 81.6155C14.0914 80.8079 14.6825 80.1935 15.4914 79.7723C16.2151 79.3954 16.9677 79.2471 17.7491 79.3273C18.5304 79.4075 19.2327 79.6823 19.8558 80.1515L20.2328 79.5764C20.4646 79.7444 20.7745 80.0971 21.1626 80.6346L22.3122 80.0361C21.8268 79.2425 21.2195 78.6478 20.4902 78.2518C19.7609 77.8559 18.9741 77.6613 18.1298 77.668C17.278 77.6605 16.4406 77.871 15.6175 78.2996C14.8937 78.6764 14.285 79.0836 13.7912 79.5211C13.2758 79.9517 12.8193 80.4781 12.4216 81.1C12.4696 80.5339 12.6424 79.9478 12.9402 79.3418C13.238 78.7358 13.6437 78.1638 14.1573 77.6258C14.6567 77.0952 15.247 76.6525 15.9282 76.2978C17.0351 75.7215 18.1663 75.3129 19.3217 75.0721C20.4628 74.8387 21.6359 74.8051 22.8409 74.9714C22.3164 75.2806 21.9726 75.6942 21.8093 76.2121C21.6319 76.7374 21.6835 77.2697 21.9643 77.809C22.1121 78.0928 22.3203 78.3542 22.5891 78.5931C22.7272 77.8537 22.9594 77.1737 23.2855 76.5529C23.5901 75.9253 23.9056 75.5265 24.232 75.3565C24.4591 75.2383 24.6802 75.1953 24.8954 75.2276C25.0965 75.2672 25.2598 75.4076 25.3854 75.6489C25.5184 75.9044 25.5401 76.1366 25.4505 76.3456C25.3609 76.5546 25.2239 76.7071 25.0394 76.8032C24.8833 76.8845 24.7337 76.9263 24.5906 76.9286C24.4901 76.9088 24.4043 76.9174 24.3334 76.9543C24.1773 77.0356 24.026 77.1955 23.8797 77.4341C23.7117 77.6658 23.5656 77.9223 23.4414 78.2034C23.303 78.4919 23.1964 78.7549 23.1216 78.9923C23.547 79.1857 23.9229 79.1974 24.2493 79.0275C24.6183 78.8353 24.9321 78.5547 25.1909 78.1855C25.4496 77.8162 25.7493 77.543 26.0899 77.3656C26.4021 77.2031 26.7271 77.1691 27.065 77.2637C27.3955 77.3442 27.6384 77.5334 27.7936 77.8315ZM20.3011 83.0855C19.3302 83.2302 18.3126 83.5797 17.2483 84.1339C16.4819 84.5329 15.8016 84.9412 15.2073 85.3589C15.6658 85.8237 16.2179 86.1045 16.8635 86.2012C17.4876 86.2912 18.0906 86.1847 18.6724 85.8817C19.1975 85.6083 19.6098 85.2223 19.9094 84.7236C20.1947 84.2323 20.3253 83.6862 20.3011 83.0855ZM19.1928 80.9568C18.7287 80.5851 18.2064 80.379 17.6261 80.3384C17.0458 80.2978 16.4931 80.4142 15.968 80.6876C15.3861 80.9906 14.9568 81.4306 14.68 82.0076C14.3816 82.5779 14.2914 83.1841 14.4093 83.8262C15.0213 83.6158 15.7459 83.2926 16.5832 82.8567C17.6902 82.2803 18.56 81.647 19.1928 80.9568Z" fill="black"/>
<path d="M24.3984 56.9642C24.373 57.2832 24.2312 57.5528 23.973 57.773C23.6988 57.992 23.3782 58.0869 23.0114 58.0578C22.6286 58.0274 22.2461 57.8926 21.8638 57.6536C21.4815 57.4146 21.083 57.2786 20.6684 57.2457C20.3334 57.2191 19.9919 57.3765 19.6437 57.718C19.8052 57.9074 20.006 58.1079 20.246 58.3196C20.47 58.53 20.7039 58.7171 20.9477 58.8809C21.1768 59.0275 21.3791 59.1078 21.5546 59.1217L21.6761 59.1073C21.8764 59.0109 22.0722 58.9703 22.2636 58.9855C22.4709 59.0019 22.6566 59.0889 22.8207 59.2464C22.9847 59.4039 23.0553 59.6262 23.0325 59.9133C23.011 60.1844 22.9154 60.3775 22.7458 60.4924C22.5602 60.606 22.3398 60.6527 22.0846 60.6325C21.7337 60.6046 21.295 60.3691 20.7684 59.926C20.2272 59.4657 19.7407 58.9215 19.3091 58.2933C19.1549 58.6181 19.0651 58.94 19.0398 59.259C18.9917 59.8651 19.1518 60.3754 19.5201 60.7899C19.8725 61.2031 20.3504 61.4497 20.954 61.5297C19.9106 62.137 18.8174 62.5638 17.6743 62.8101C16.5165 63.0391 15.3156 63.1042 14.0715 63.0054C13.306 62.9446 12.5818 62.7667 11.899 62.4717C11.2162 62.1767 10.6195 61.8083 10.1089 61.3664C9.59826 60.9246 9.21841 60.4531 8.96933 59.9518C9.57818 60.3693 10.2032 60.6838 10.8445 60.8952C11.4711 61.0894 12.1911 61.2189 13.0045 61.2835C13.9296 61.357 14.7822 61.2321 15.5622 60.9088C16.3423 60.5856 16.9908 60.0994 17.5078 59.4503C18.0261 58.7853 18.3539 57.9927 18.4912 57.0727L17.1993 56.9701C17.0542 57.5845 16.9064 58.0302 16.756 58.3072C16.6347 58.2173 16.5282 58.1446 16.4363 58.0892C16.3456 58.0178 16.2617 57.963 16.1845 57.9247C15.8098 58.6012 15.2783 59.1288 14.5902 59.5075C13.8861 59.8849 13.1273 60.0413 12.3139 59.9767C11.4047 59.9045 10.6208 59.5693 9.96209 58.9713C9.28869 58.356 8.86531 57.6242 8.69195 56.7758C8.36789 56.8143 8.13762 56.8843 8.00116 56.9858C7.86469 57.0873 7.78632 57.2656 7.76605 57.5208L7.31148 57.4847C7.33809 57.1498 7.22849 56.812 6.98268 56.4715C6.73688 56.131 6.62284 55.8491 6.64058 55.6258C6.65832 55.4025 6.81733 55.1182 7.11762 54.7729C7.41791 54.4276 7.58135 54.0874 7.60796 53.7525L8.06253 53.7886C8.04226 54.0438 8.09148 54.2323 8.21021 54.3541C8.32894 54.4758 8.54527 54.5813 8.8592 54.6704C9.16559 53.8441 9.6992 53.1883 10.46 52.703C11.2049 52.2165 12.0319 52.0093 12.941 52.0815C13.7545 52.1462 14.471 52.4198 15.0908 52.9024C15.7105 53.385 16.16 53.9904 16.4392 54.7188L17.0639 54.4314C17.1712 54.6967 17.2468 55.1602 17.2905 55.8217L18.5824 55.9243C18.5921 54.9942 18.3929 54.1678 17.9849 53.4452C17.5768 52.7227 17.0132 52.1402 16.2939 51.6979C15.576 51.2396 14.7545 50.9737 13.8294 50.9002C13.0159 50.8356 12.2839 50.8577 11.6332 50.9665C10.9679 51.0581 10.3016 51.262 9.63451 51.5781C9.97556 51.1237 10.4331 50.7187 11.007 50.363C11.581 50.0073 12.2284 49.7378 12.9492 49.5543C13.654 49.3695 14.3892 49.3075 15.1548 49.3683C16.3989 49.4672 17.5745 49.721 18.6816 50.13C19.7727 50.5377 20.7849 51.1317 21.718 51.912C21.1094 51.8958 20.5985 52.0639 20.1853 52.4163C19.7561 52.7674 19.5175 53.246 19.4693 53.8521C19.444 54.1711 19.4818 54.5031 19.5828 54.8482C20.0922 54.2948 20.6499 53.8415 21.2557 53.4884C21.8469 53.118 22.3259 52.9474 22.6928 52.9766C22.948 52.9969 23.1582 53.0778 23.3235 53.2193C23.4729 53.3596 23.5368 53.5653 23.5153 53.8364C23.4925 54.1235 23.3876 54.3319 23.2008 54.4615C23.0139 54.5911 22.8168 54.6477 22.6095 54.6312C22.434 54.6172 22.2851 54.5733 22.1625 54.4994C22.0878 54.4292 22.0106 54.391 21.9309 54.3847C21.7554 54.3707 21.5424 54.426 21.2917 54.5506C21.0264 54.6579 20.7665 54.7978 20.5121 54.9702C20.2417 55.1413 20.0118 55.3076 19.8224 55.4691C20.0803 55.8588 20.3927 56.0682 20.7596 56.0973C21.1743 56.1302 21.5892 56.0589 22.0044 55.8832C22.4197 55.7075 22.8187 55.6349 23.2015 55.6653C23.5524 55.6932 23.8459 55.8369 24.0821 56.0964C24.3195 56.34 24.425 56.6292 24.3984 56.9642ZM15.2598 57.442C14.3601 57.0495 13.3121 56.8058 12.1159 56.7107C11.2546 56.6423 10.4613 56.6275 9.73592 56.6661C9.8779 57.3034 10.1969 57.8343 10.6928 58.2589C11.174 58.6663 11.7416 58.896 12.3956 58.9479C12.9857 58.9948 13.54 58.8864 14.0586 58.6226C14.5611 58.3575 14.9615 57.964 15.2598 57.442ZM15.4499 55.0495C15.2537 54.4882 14.9204 54.0364 14.4501 53.6941C13.9797 53.3518 13.4494 53.1572 12.8593 53.1103C12.2054 53.0584 11.608 53.2035 11.0672 53.5458C10.5117 53.8708 10.1136 54.3367 9.87275 54.9436C10.5031 55.0899 11.2889 55.2005 12.2299 55.2753C13.474 55.3741 14.5473 55.2988 15.4499 55.0495Z" fill="black"/>
<path d="M32.5929 37.4753C32.4022 37.7322 32.139 37.8855 31.8032 37.9351C31.4546 37.9752 31.1325 37.8856 30.8371 37.6663C30.5287 37.4374 30.276 37.1202 30.0788 36.7148C29.8816 36.3093 29.616 35.9826 29.282 35.7347C29.0122 35.5344 28.6391 35.4866 28.1628 35.5914C28.1993 35.8376 28.263 36.1141 28.3541 36.4208C28.4324 36.7181 28.5314 37.0008 28.6511 37.269C28.7675 37.5148 28.8964 37.6902 29.0377 37.7951L29.1483 37.8474C29.3693 37.8719 29.5568 37.9414 29.711 38.0558C29.878 38.1798 29.9892 38.352 30.0447 38.5726C30.1002 38.7931 30.0421 39.019 29.8704 39.2502C29.7083 39.4686 29.5248 39.5815 29.3201 39.5889C29.1025 39.5868 28.8909 39.5094 28.6853 39.3569C28.4027 39.147 28.1558 38.7146 27.9446 38.0597C27.73 37.3823 27.6065 36.6629 27.574 35.9015C27.2709 36.095 27.024 36.3202 26.8333 36.5771C26.4709 37.0653 26.3358 37.5828 26.4281 38.1295C26.5075 38.6667 26.7818 39.1294 27.2509 39.5175C26.0443 39.4786 24.8912 39.2603 23.7916 38.8625C22.6888 38.4423 21.6363 37.8602 20.6342 37.1163C20.0176 36.6586 19.4982 36.1235 19.0759 35.5112C18.6537 34.8988 18.3434 34.27 18.1451 33.6245C17.9467 32.9791 17.8749 32.3778 17.9298 31.8208C18.2243 32.4977 18.5873 33.0959 19.0186 33.6154C19.4467 34.1125 19.9883 34.6043 20.6435 35.0907C21.3886 35.6438 22.1775 35.9904 23.0102 36.1303C23.8429 36.2702 24.6506 36.2022 25.4333 35.9264C26.2254 35.6377 26.9238 35.1399 27.5284 34.4329L26.4877 33.6604C26.0387 34.1042 25.677 34.4036 25.4025 34.5585C25.3475 34.418 25.2957 34.2998 25.2472 34.2041C25.2083 34.0955 25.1662 34.0045 25.1211 33.9311C24.4445 34.3056 23.7141 34.4708 22.9299 34.4266C22.1328 34.373 21.4067 34.1029 20.7515 33.6165C20.0192 33.0729 19.5325 32.3729 19.2915 31.5165C19.0472 30.6377 19.0767 29.7927 19.3799 28.9816C19.0848 28.8422 18.8525 28.7794 18.683 28.793C18.5134 28.8067 18.3524 28.9162 18.1998 29.1218L17.8336 28.85C18.0339 28.5802 18.1202 28.2358 18.0926 27.8167C18.0649 27.3976 18.1178 27.0982 18.2514 26.9183C18.3849 26.7385 18.6705 26.5819 19.1083 26.4485C19.546 26.3152 19.865 26.1136 20.0653 25.8438L20.4314 26.1156C20.2789 26.3212 20.2206 26.507 20.2566 26.6733C20.2926 26.8395 20.42 27.0437 20.6388 27.2858C21.337 26.748 22.1372 26.4752 23.0396 26.4676C23.9291 26.4504 24.74 26.7137 25.4723 27.2573C26.1275 27.7437 26.5897 28.3558 26.8589 29.0937C27.1282 29.8316 27.1879 30.5833 27.038 31.3488L27.72 31.4367C27.6702 31.7185 27.4884 32.1514 27.1744 32.7354L28.215 33.5079C28.7168 32.7246 28.9864 31.9185 29.024 31.0895C29.0615 30.2605 28.8928 29.4677 28.5179 28.7111C28.1525 27.9417 27.5972 27.2805 26.8521 26.7273C26.1969 26.2409 25.5647 25.8712 24.9555 25.6182C24.3429 25.3428 23.67 25.1621 22.9368 25.0761C23.467 24.8719 24.0697 24.7713 24.7449 24.7744C25.4201 24.7775 26.1119 24.8925 26.8202 25.1194C27.5157 25.3368 28.1718 25.6744 28.7884 26.1322C29.7905 26.8761 30.6522 27.7151 31.3736 28.6491C32.0822 29.5737 32.6249 30.6142 33.0018 31.7708C32.4945 31.4341 31.9723 31.3054 31.435 31.3849C30.885 31.4548 30.4287 31.7338 30.0663 32.222C29.8756 32.4789 29.7315 32.7804 29.634 33.1265C30.3594 32.9278 31.0726 32.8395 31.7735 32.8616C32.4711 32.8614 32.9676 32.971 33.2631 33.1903C33.4687 33.3429 33.604 33.523 33.669 33.7307C33.7212 33.9289 33.6662 34.1371 33.504 34.3555C33.3324 34.5868 33.133 34.7078 32.9058 34.7185C32.6787 34.7292 32.4816 34.6726 32.3146 34.5486C32.1733 34.4437 32.0703 34.3274 32.0057 34.1997C31.9796 34.1006 31.9344 34.0272 31.8702 33.9796C31.7289 33.8747 31.5189 33.8085 31.2404 33.781C30.9585 33.7312 30.6641 33.7119 30.3569 33.723C30.0369 33.7246 29.7538 33.7435 29.5076 33.78C29.5195 34.2471 29.6732 34.5903 29.9686 34.8097C30.3027 35.0577 30.6922 35.2174 31.1374 35.2888C31.5826 35.3602 31.9593 35.5103 32.2676 35.7392C32.5503 35.949 32.7228 36.2266 32.7853 36.5719C32.8573 36.9043 32.7932 37.2055 32.5929 37.4753ZM24.5934 33.0313C24.0391 32.2212 23.2801 31.4585 22.3166 30.7432C21.6228 30.2282 20.9583 29.7947 20.323 29.4426C20.1052 30.0581 20.0938 30.6773 20.2889 31.3004C20.4806 31.901 20.8399 32.3969 21.3666 32.7879C21.8419 33.1408 22.3693 33.343 22.9488 33.3945C23.5154 33.4366 24.0636 33.3155 24.5934 33.0313ZM26.024 31.1042C26.1556 30.5244 26.1128 29.9646 25.8958 29.4248C25.6787 28.8851 25.3325 28.4388 24.8572 28.0859C24.3304 27.6949 23.7471 27.501 23.1071 27.5041C22.4638 27.4848 21.8791 27.6685 21.353 28.0551C21.8096 28.5137 22.4169 29.0243 23.1749 29.587C24.177 30.3309 25.1267 30.8366 26.024 31.1042Z" fill="black"/>
<path d="M49.8799 25.3043C49.5818 25.4208 49.2774 25.4111 48.9664 25.275C48.6497 25.124 48.4242 24.8772 48.2902 24.5345C48.1503 24.1769 48.1043 23.7739 48.1523 23.3256C48.2003 22.8774 48.1485 22.4595 47.997 22.0721C47.8746 21.7592 47.5837 21.5207 47.1244 21.3568C47.0247 21.5848 46.932 21.853 46.8464 22.1614C46.7551 22.4548 46.689 22.747 46.6481 23.0378C46.6163 23.308 46.6325 23.525 46.6966 23.6889L46.7627 23.7919C46.9369 23.9299 47.059 24.0883 47.129 24.2671C47.2048 24.4608 47.2077 24.6659 47.1377 24.8822C47.0677 25.0986 46.8986 25.2593 46.6304 25.3642C46.3771 25.4633 46.1617 25.4616 45.9842 25.3592C45.8009 25.242 45.6626 25.0641 45.5693 24.8257C45.4411 24.4979 45.4612 24.0004 45.6297 23.3331C45.8073 22.6452 46.0843 21.9699 46.4608 21.3072C46.1012 21.3104 45.7724 21.3703 45.4744 21.4868C44.9082 21.7083 44.5192 22.0753 44.3073 22.5877C44.0895 23.0852 44.0765 23.6229 44.2682 24.2008C43.2661 23.5276 42.4046 22.7307 41.6837 21.81C40.9718 20.8687 40.3886 19.8169 39.9339 18.6546C39.6541 17.9394 39.4978 17.2103 39.4648 16.4672C39.4318 15.7241 39.5025 15.0265 39.6769 14.3741C39.8512 13.7218 40.1094 13.1741 40.4515 12.731C40.3419 13.4611 40.3322 14.1607 40.4221 14.8299C40.5212 15.4784 40.7193 16.1826 41.0166 16.9425C41.3547 17.8068 41.8395 18.5191 42.4711 19.0795C43.1026 19.64 43.8233 20.0109 44.633 20.1924C45.4577 20.368 46.3138 20.3166 47.2013 20.0382L46.7292 18.8312C46.1131 18.9691 45.6477 19.031 45.3328 19.0167C45.3607 18.8683 45.3795 18.7407 45.3892 18.6338C45.4138 18.5211 45.4265 18.4217 45.4271 18.3355C44.6549 18.294 43.9482 18.0464 43.3069 17.5929C42.6598 17.1244 42.1876 16.5102 41.8903 15.7503C41.5581 14.901 41.517 14.0494 41.7672 13.1956C42.0264 12.3211 42.4997 11.6205 43.1871 11.0939C43.0109 10.8192 42.8474 10.6427 42.6964 10.5643C42.5455 10.4859 42.3508 10.4933 42.1124 10.5866L41.9463 10.1619C42.2592 10.0395 42.5151 9.79335 42.714 9.42347C42.913 9.05358 43.1167 8.82784 43.3253 8.74623C43.5339 8.66463 43.8591 8.68345 44.301 8.8027C44.7428 8.92195 45.1201 8.92037 45.433 8.79796L45.5991 9.22263C45.3607 9.31589 45.2127 9.44252 45.155 9.60252C45.0973 9.76253 45.097 10.0032 45.154 10.3245C46.0311 10.2391 46.8542 10.4326 47.6231 10.9049C48.3862 11.3624 48.9338 12.0157 49.2661 12.8651C49.5633 13.625 49.6303 14.3891 49.467 15.1574C49.3036 15.9257 48.9554 16.5945 48.4221 17.1639L48.9536 17.6003C48.7619 17.8127 48.378 18.0832 47.802 18.4116L48.2742 19.6185C49.1151 19.2208 49.7714 18.6806 50.2431 17.9979C50.7148 17.3151 50.9924 16.5536 51.0761 15.7134C51.1747 14.8674 51.0549 14.0122 50.7168 13.148C50.4196 12.3881 50.0799 11.7392 49.6977 11.2015C49.3246 10.643 48.8501 10.1328 48.2743 9.67088C48.832 9.77912 49.3963 10.0137 49.967 10.3746C50.5376 10.7355 51.063 11.2 51.543 11.7682C52.0171 12.3215 52.3941 12.9558 52.6738 13.671C53.1285 14.8332 53.4137 16.0016 53.5296 17.1761C53.6396 18.3357 53.5475 19.5057 53.2532 20.686C53.0019 20.1314 52.6275 19.7453 52.13 19.5276C51.6267 19.2949 51.0919 19.2894 50.5257 19.5109C50.2277 19.6274 49.9455 19.8065 49.6793 20.0481C50.3996 20.2646 51.051 20.5682 51.6333 20.9589C52.2247 21.3288 52.5875 21.6852 52.7215 22.0279C52.8148 22.2663 52.8339 22.4908 52.7788 22.7013C52.7179 22.8969 52.5608 23.0443 52.3075 23.1434C52.0393 23.2483 51.806 23.245 51.6078 23.1336C51.4096 23.0222 51.2726 22.8696 51.1968 22.6759C51.1327 22.512 51.1071 22.3588 51.1201 22.2162C51.1506 22.1184 51.1512 22.0323 51.1221 21.9578C51.058 21.7939 50.9151 21.6264 50.6936 21.4553C50.4811 21.2635 50.2418 21.0909 49.9755 20.9373C49.7035 20.7689 49.4534 20.6347 49.2254 20.5349C48.9876 20.9372 48.9358 21.3097 49.0698 21.6524C49.2214 22.0398 49.4669 22.3819 49.8063 22.6786C50.1457 22.9754 50.3854 23.3026 50.5253 23.6602C50.6535 23.988 50.6525 24.3148 50.5222 24.6406C50.4069 24.9607 50.1928 25.1819 49.8799 25.3043ZM45.4574 17.2928C45.4173 16.312 45.1787 15.2629 44.7415 14.1453C44.4268 13.3407 44.0936 12.6206 43.7419 11.9851C43.2307 12.3912 42.8925 12.9101 42.7272 13.5417C42.571 14.1525 42.6124 14.7634 42.8514 15.3744C43.0671 15.9257 43.4068 16.3769 43.8706 16.7281C44.3286 17.0644 44.8575 17.2526 45.4574 17.2928ZM47.6925 16.4185C48.1116 15.9968 48.3724 15.4997 48.4749 14.927C48.5773 14.3543 48.5207 13.7923 48.305 13.241C48.066 12.6301 47.6744 12.1562 47.1303 11.8193C46.5953 11.4616 46.0022 11.307 45.3511 11.3556C45.4949 11.9865 45.7387 12.7416 46.0826 13.6207C46.5372 14.783 47.0739 15.7156 47.6925 16.4185Z" fill="black"/>
<path d="M70.9905 24.1606C70.6761 24.1013 70.4232 23.9315 70.2318 23.6512C70.0434 23.3551 69.9833 23.0263 70.0516 22.6647C70.1227 22.2873 70.2976 21.9214 70.5761 21.5669C70.8547 21.2124 71.0325 20.8307 71.1096 20.4219C71.1719 20.0917 71.0519 19.7353 70.7496 19.3526C70.544 19.493 70.3232 19.6711 70.087 19.8871C69.8539 20.0873 69.6428 20.2999 69.4539 20.5248C69.2836 20.7369 69.1821 20.9294 69.1495 21.1024L69.1509 21.2247C69.2253 21.4342 69.2448 21.6332 69.2092 21.8219C69.1706 22.0263 69.0643 22.2016 68.8902 22.3479C68.716 22.4941 68.4875 22.5406 68.2044 22.4872C67.9372 22.4368 67.7555 22.3211 67.6593 22.1401C67.5662 21.9435 67.5433 21.7193 67.5908 21.4678C67.656 21.1219 67.9371 20.7109 68.434 20.2347C68.9495 19.7458 69.5426 19.3204 70.2134 18.9584C69.9069 18.7704 69.5965 18.6467 69.282 18.5874C68.6845 18.4746 68.1601 18.5792 67.7086 18.9011C67.2601 19.2073 66.9637 19.6561 66.8196 20.2477C66.3274 19.1453 66.02 18.0127 65.8974 16.8499C65.7935 15.6742 65.8573 14.4732 66.0886 13.2469C66.2309 12.4922 66.4853 11.7912 66.8516 11.1439C67.218 10.4965 67.6481 9.94267 68.142 9.48224C68.6359 9.02182 69.1454 8.69459 69.6705 8.50055C69.1902 9.06125 68.8107 9.64908 68.5318 10.2641C68.2717 10.8663 68.066 11.5683 67.9147 12.3702C67.7427 13.2821 67.7757 14.1431 68.0136 14.9533C68.2516 15.7634 68.6656 16.4602 69.2557 17.0437C69.8615 17.6302 70.6144 18.0409 71.5145 18.2758L71.7547 17.0022C71.1593 16.7922 70.732 16.5976 70.4727 16.4185C70.575 16.3075 70.6587 16.2093 70.7236 16.1239C70.8043 16.0414 70.8678 15.9638 70.9141 15.8911C70.2816 15.4462 69.8139 14.8614 69.511 14.1367C69.211 13.3962 69.1367 12.6251 69.2879 11.8232C69.457 10.927 69.874 10.1835 70.5391 9.59249C71.2229 8.98877 71.9958 8.6461 72.8578 8.56448C72.8543 8.23816 72.8093 8.00173 72.723 7.85519C72.6366 7.70865 72.4677 7.61165 72.2161 7.5642L72.3007 7.1161C72.6308 7.17838 72.9784 7.10554 73.3432 6.89757C73.7081 6.6896 74.0006 6.60637 74.2207 6.64789C74.4408 6.68941 74.7065 6.87792 75.0177 7.21342C75.3289 7.54892 75.6496 7.74782 75.9798 7.8101L75.8952 8.25819C75.6437 8.21074 75.451 8.23953 75.3172 8.34455C75.1834 8.44957 75.0554 8.65337 74.9332 8.95596C75.7221 9.34899 76.317 9.94969 76.7181 10.758C77.1222 11.5507 77.2397 12.3951 77.0707 13.2913C76.9194 14.0932 76.5707 14.7764 76.0246 15.3409C75.4785 15.9055 74.8284 16.2876 74.0743 16.4873L74.2933 17.1392C74.018 17.2175 73.5491 17.243 72.8867 17.2158L72.6465 18.4893C73.5703 18.5984 74.4132 18.4888 75.1753 18.1603C75.9374 17.8319 76.5768 17.3338 77.0935 16.666C77.626 16.0012 77.9782 15.2128 78.1502 14.3009C78.3015 13.499 78.3578 12.7688 78.3192 12.1103C78.2993 11.4389 78.1679 10.7547 77.9249 10.0576C78.3402 10.4453 78.694 10.9435 78.9862 11.5522C79.2785 12.1609 79.4772 12.8334 79.5826 13.5697C79.6909 14.2903 79.6739 15.0279 79.5315 15.7826C79.3002 17.009 78.922 18.1507 78.397 19.2077C77.8749 20.2489 77.1761 21.1917 76.3004 22.0361C76.3816 21.4327 76.2692 20.9067 75.963 20.4582C75.6598 19.9939 75.2095 19.7055 74.612 19.5928C74.2976 19.5334 73.9634 19.5355 73.6095 19.599C74.1052 20.1647 74.4962 20.7677 74.7825 21.4078C75.0875 22.0352 75.2059 22.5297 75.1377 22.8914C75.0902 23.1429 74.9873 23.3433 74.8289 23.4925C74.6735 23.626 74.4621 23.6676 74.1948 23.6172C73.9118 23.5638 73.7159 23.4373 73.607 23.2376C73.4981 23.038 73.4629 22.836 73.5015 22.6316C73.5341 22.4586 73.5937 22.3152 73.6803 22.2013C73.7581 22.1345 73.8043 22.0618 73.8192 21.9832C73.8518 21.8103 73.8196 21.5925 73.7226 21.33C73.6442 21.0547 73.533 20.7813 73.3888 20.5099C73.2476 20.2228 73.1068 19.9764 72.9665 19.7708C72.5515 19.9856 72.3099 20.2738 72.2417 20.6355C72.1645 21.0442 72.1911 21.4644 72.3214 21.8961C72.4516 22.3277 72.4812 22.7322 72.41 23.1095C72.3447 23.4554 72.1705 23.7319 71.8872 23.939C71.6196 24.149 71.3207 24.2229 70.9905 24.1606ZM71.4929 15.0234C71.9794 14.1708 72.3339 13.1549 72.5563 11.9757C72.7165 11.1267 72.8161 10.3395 72.8552 9.61419C72.2064 9.68719 71.6444 9.94753 71.1692 10.3952C70.7127 10.8301 70.4236 11.3699 70.302 12.0145C70.1923 12.5963 70.2408 13.159 70.4476 13.7028C70.6574 14.2308 71.0058 14.671 71.4929 15.0234ZM73.8513 15.4683C74.4304 15.3333 74.9153 15.0502 75.3059 14.6192C75.6966 14.1881 75.9468 13.6817 76.0566 13.1C76.1782 12.4554 76.0977 11.8459 75.8153 11.2716C75.5515 10.6845 75.1309 10.2388 74.5533 9.93449C74.3403 10.5456 74.1463 11.315 73.9713 12.2426C73.74 13.469 73.7 14.5442 73.8513 15.4683Z" fill="black"/>
<path d="M89.4911 34.3929C89.256 34.1758 89.1318 33.8977 89.1183 33.5585C89.1157 33.2076 89.2393 32.897 89.489 32.6267C89.7495 32.3446 90.0919 32.1272 90.5161 31.9745C90.9403 31.8218 91.2935 31.5927 91.5758 31.2871C91.8038 31.0403 91.8912 30.6745 91.838 30.1898C91.5893 30.1996 91.3076 30.2334 90.9928 30.2912C90.6889 30.3372 90.3973 30.4054 90.1178 30.4957C89.8609 30.5852 89.6728 30.6946 89.5533 30.8238L89.4895 30.9283C89.4415 31.1453 89.3524 31.3243 89.2221 31.4654C89.081 31.6182 88.8978 31.7104 88.6726 31.7419C88.4474 31.7735 88.229 31.6916 88.0175 31.4962C87.8177 31.3116 87.725 31.1171 87.7396 30.9128C87.765 30.6966 87.8645 30.4945 88.0382 30.3065C88.2771 30.0479 88.7334 29.8486 89.4072 29.7087C90.1036 29.5679 90.8321 29.522 91.5927 29.5711C91.4327 29.2491 91.2352 28.9795 91.0001 28.7624C90.5535 28.3498 90.0535 28.1602 89.5 28.1935C88.9574 28.215 88.468 28.4382 88.032 28.8631C88.1997 27.6676 88.5401 26.5445 89.0532 25.4937C89.589 24.4421 90.2803 23.458 91.1271 22.5412C91.6482 21.9771 92.2357 21.5179 92.8897 21.1636C93.5437 20.8093 94.2022 20.568 94.8651 20.4398C95.5281 20.3116 96.1336 20.3046 96.6816 20.4188C95.977 20.6392 95.3434 20.9361 94.7807 21.3094C94.2407 21.6818 93.6938 22.1677 93.1401 22.7671C92.5105 23.4488 92.0815 24.1961 91.8534 25.0091C91.6252 25.822 91.6064 26.6323 91.7969 27.44C91.9992 28.2585 92.4195 29.0061 93.0577 29.6828L93.9371 28.7308C93.5439 28.2369 93.2849 27.8452 93.1602 27.5558C93.3058 27.516 93.4288 27.4772 93.5292 27.4392C93.6414 27.4121 93.7363 27.3801 93.8141 27.343C93.5141 26.6303 93.428 25.8864 93.5558 25.1114C93.6944 24.3246 94.0406 23.6315 94.5943 23.0321C95.2131 22.3622 95.9612 21.9532 96.8385 21.8052C97.7384 21.6563 98.5753 21.776 99.3493 22.1642C99.5194 21.8857 99.6068 21.6615 99.6114 21.4914C99.616 21.3214 99.5242 21.1496 99.3362 20.9759L99.6456 20.6409C99.8924 20.8689 100.226 20.9915 100.645 21.0089C101.065 21.0262 101.357 21.1109 101.521 21.2628C101.686 21.4148 101.811 21.7156 101.897 22.1651C101.983 22.6146 102.149 22.9533 102.396 23.1813L102.086 23.5163C101.898 23.3426 101.72 23.2647 101.551 23.2828C101.382 23.3008 101.165 23.4056 100.901 23.5973C101.361 24.349 101.546 25.1738 101.457 26.0718C101.379 26.9581 101.031 27.7362 100.412 28.4061C99.8584 29.0055 99.2003 29.3996 98.4379 29.5884C97.6754 29.7771 96.9216 29.756 96.1765 29.5252L96.0162 30.1939C95.7413 30.1142 95.3303 29.8871 94.7833 29.5125L93.904 30.4645C94.6291 31.0472 95.4017 31.4015 96.222 31.5275C97.0422 31.6535 97.8485 31.5705 98.6408 31.2787C99.4449 30.9977 100.162 30.5164 100.791 29.8347C101.345 29.2353 101.78 28.6462 102.097 28.0675C102.436 27.488 102.688 26.8383 102.852 26.1184C102.998 26.6674 103.034 27.2774 102.959 27.9485C102.883 28.6195 102.695 29.295 102.393 29.975C102.103 30.6432 101.697 31.2594 101.176 31.8235C100.329 32.7403 99.4029 33.5073 98.397 34.1247C97.402 34.7303 96.3093 35.1586 95.1191 35.4096C95.5081 34.9412 95.6919 34.4358 95.6704 33.8931C95.6597 33.3387 95.4311 32.8553 94.9845 32.4427C94.7494 32.2256 94.465 32.05 94.1314 31.9161C94.2514 32.6586 94.2629 33.3771 94.1659 34.0717C94.0915 34.7653 93.9294 35.2473 93.6797 35.5176C93.506 35.7057 93.3125 35.8209 93.099 35.8633C92.8964 35.894 92.6952 35.8171 92.4954 35.6325C92.2839 35.4371 92.1849 35.2259 92.1986 34.9989C92.2122 34.7719 92.2896 34.582 92.4307 34.4292C92.5501 34.2999 92.6768 34.21 92.8107 34.1594C92.9119 34.144 92.9897 34.107 93.044 34.0482C93.1634 33.9189 93.2517 33.7173 93.3088 33.4433C93.3884 33.1684 93.4392 32.8777 93.461 32.5711C93.4937 32.2527 93.5051 31.9692 93.4952 31.7205C93.0295 31.6824 92.6717 31.7985 92.422 32.0688C92.1398 32.3744 91.9393 32.7446 91.8207 33.1796C91.7021 33.6146 91.5125 33.9731 91.2519 34.2552C91.0131 34.5137 90.7187 34.6556 90.3687 34.6808C90.0304 34.7169 89.7379 34.6209 89.4911 34.3929ZM94.7652 26.9147C95.63 26.4501 96.4695 25.7771 97.2837 24.8956C97.87 24.2609 98.3721 23.6466 98.7901 23.0526C98.2015 22.7702 97.587 22.6927 96.9466 22.82C96.3289 22.9464 95.7975 23.2505 95.3524 23.7324C94.9507 24.1672 94.6932 24.67 94.58 25.2406C94.4776 25.7995 94.5393 26.3575 94.7652 26.9147ZM96.5282 28.5431C97.0907 28.736 97.6518 28.7533 98.2117 28.5953C98.7715 28.4372 99.2523 28.1407 99.654 27.7059C100.099 27.224 100.354 26.6647 100.42 26.0281C100.508 25.3905 100.388 24.7895 100.059 24.2251C99.5547 24.6301 98.982 25.1793 98.3415 25.8727C97.4947 26.7894 96.8902 27.6796 96.5282 28.5431Z" fill="black"/>
<path d="M99.7431 52.8825C99.6591 52.5737 99.7013 52.272 99.8699 51.9774C100.054 51.6786 100.323 51.4809 100.679 51.3843C101.049 51.2834 101.455 51.2808 101.895 51.3765C102.336 51.4722 102.757 51.4654 103.158 51.3561C103.482 51.2679 103.751 51.0042 103.963 50.5651C103.747 50.4415 103.49 50.3207 103.192 50.2026C102.91 50.0804 102.627 49.9834 102.342 49.9117C102.077 49.8512 101.86 49.8441 101.69 49.8903L101.58 49.945C101.424 50.1035 101.254 50.2079 101.069 50.2583C100.868 50.313 100.664 50.2939 100.456 50.2012C100.248 50.1084 100.107 49.9231 100.031 49.6452C99.9597 49.3828 99.9844 49.1688 100.105 49.0033C100.241 48.8335 100.433 48.7151 100.68 48.6478C101.02 48.5554 101.512 48.6286 102.158 48.8676C102.823 49.1177 103.464 49.4654 104.083 49.9105C104.118 49.5527 104.094 49.2194 104.01 48.9107C103.85 48.324 103.527 47.8979 103.04 47.6324C102.569 47.3627 102.036 47.2923 101.441 47.4211C102.217 46.4967 103.102 45.7254 104.094 45.1071C105.106 44.5 106.214 44.0326 107.418 43.7049C108.16 43.5032 108.901 43.4257 109.644 43.4724C110.386 43.5191 111.072 43.6641 111.702 43.9072C112.332 44.1503 112.849 44.4656 113.253 44.8531C112.539 44.6661 111.844 44.5815 111.169 44.5994C110.514 44.6285 109.792 44.7502 109.005 44.9645C108.109 45.2082 107.349 45.614 106.725 46.182C106.1 46.75 105.654 47.4269 105.387 48.2126C105.124 49.0137 105.084 49.8704 105.265 50.7826L106.516 50.4423C106.445 49.815 106.433 49.3456 106.481 49.0341C106.626 49.0777 106.75 49.11 106.856 49.1311C106.965 49.1677 107.063 49.1909 107.148 49.2007C107.272 48.4374 107.594 47.7612 108.113 47.1721C108.648 46.5788 109.309 46.175 110.097 45.9607C110.977 45.7212 111.828 45.7715 112.65 46.1115C113.492 46.4628 114.138 47.0084 114.588 47.7481C114.88 47.6023 115.073 47.4586 115.167 47.3169C115.261 47.1753 115.274 46.9809 115.207 46.7339L115.647 46.6141C115.735 46.9384 115.953 47.2191 116.299 47.4565C116.646 47.6938 116.848 47.9206 116.907 48.1367C116.966 48.3528 116.913 48.6742 116.747 49.1007C116.581 49.5272 116.542 49.9025 116.63 50.2268L116.19 50.3465C116.123 50.0995 116.013 49.9387 115.86 49.8643C115.707 49.7898 115.468 49.7637 115.142 49.786C115.134 50.6673 114.853 51.4649 114.301 52.1789C113.765 52.8887 113.057 53.3633 112.177 53.6028C111.389 53.817 110.622 53.8019 109.876 53.5573C109.129 53.3127 108.502 52.8949 107.993 52.3039L107.502 52.7856C107.311 52.5722 107.083 52.1616 106.819 51.5539L105.568 51.8942C105.873 52.7728 106.34 53.4831 106.969 54.0252C107.597 54.5672 108.325 54.9247 109.151 55.0977C109.982 55.2862 110.845 55.2586 111.74 55.0149C112.527 54.8007 113.209 54.5323 113.784 54.2099C114.38 53.8987 114.938 53.4815 115.459 52.9583C115.291 53.5013 114.998 54.0372 114.578 54.566C114.158 55.0948 113.64 55.5675 113.024 55.9839C112.423 56.3962 111.752 56.7031 111.011 56.9048C109.807 57.2325 108.614 57.3911 107.434 57.3807C106.269 57.366 105.116 57.1493 103.974 56.7305C104.552 56.54 104.976 56.209 105.246 55.7376C105.531 55.2621 105.594 54.731 105.434 54.1443C105.35 53.8355 105.202 53.5359 104.991 53.2453C104.698 53.9383 104.327 54.5535 103.876 55.0907C103.445 55.6391 103.052 55.9617 102.697 56.0583C102.45 56.1255 102.224 56.1205 102.021 56.0432C101.833 55.9617 101.703 55.7898 101.632 55.5273C101.556 55.2494 101.584 55.0179 101.716 54.8327C101.848 54.6476 102.015 54.5277 102.216 54.473C102.385 54.4268 102.54 54.4178 102.681 54.4459C102.775 54.4867 102.86 54.4965 102.938 54.4755C103.107 54.4293 103.289 54.3052 103.483 54.1033C103.696 53.9125 103.894 53.693 104.075 53.4447C104.271 53.1922 104.431 52.958 104.555 52.7419C104.181 52.4625 103.816 52.3711 103.461 52.4677C103.059 52.5769 102.693 52.7844 102.362 53.0902C102.03 53.3959 101.679 53.5992 101.309 53.7C100.969 53.7925 100.644 53.7565 100.334 53.5922C100.028 53.4432 99.8313 53.2067 99.7431 52.8825ZM108.182 49.3423C109.161 49.4074 110.23 49.2824 111.388 48.9673C112.221 48.7404 112.973 48.4861 113.642 48.2044C113.293 47.6527 112.814 47.2609 112.203 47.0291C111.613 46.8084 111.001 46.7842 110.368 46.9565C109.797 47.112 109.312 47.4015 108.913 47.8251C108.53 48.2444 108.286 48.7502 108.182 49.3423ZM108.812 51.6581C109.186 52.12 109.653 52.4325 110.211 52.5955C110.77 52.7586 111.334 52.7624 111.906 52.607C112.539 52.4347 113.052 52.0961 113.445 51.5911C113.858 51.0974 114.075 50.5243 114.096 49.8718C113.453 49.9472 112.677 50.1088 111.766 50.3567C110.562 50.6845 109.577 51.1182 108.812 51.6581Z" fill="black"/>
<path d="M98.6221 73.9944C98.7147 73.6881 98.9106 73.4548 99.2098 73.2945C99.5243 73.1389 99.8577 73.1143 100.21 73.2208C100.577 73.3319 100.923 73.5449 101.245 73.8598C101.568 74.1746 101.928 74.3923 102.327 74.5127C102.648 74.6099 103.015 74.5287 103.428 74.2691C103.311 74.0497 103.157 73.811 102.968 73.5532C102.794 73.2999 102.605 73.0673 102.401 72.8554C102.209 72.6634 102.028 72.542 101.86 72.491L101.738 72.4793C101.522 72.5309 101.322 72.5289 101.138 72.4734C100.939 72.4132 100.776 72.2887 100.649 72.0999C100.522 71.9111 100.501 71.6789 100.584 71.4032C100.663 71.1429 100.797 70.9746 100.987 70.8984C101.193 70.8268 101.418 70.8281 101.663 70.9021C102 71.004 102.379 71.3274 102.799 71.8724C103.23 72.4373 103.589 73.0725 103.878 73.7781C104.097 73.4935 104.254 73.1981 104.346 72.8918C104.522 72.3098 104.474 71.7771 104.202 71.2938C103.946 70.8151 103.531 70.4725 102.959 70.2659C104.107 69.8944 105.266 69.7099 106.436 69.7125C107.616 69.7349 108.803 69.9267 109.998 70.2879C110.733 70.5102 111.402 70.8381 112.007 71.2715C112.611 71.705 113.116 72.1919 113.521 72.7322C113.926 73.2725 114.197 73.8141 114.334 74.3569C113.827 73.8194 113.284 73.3792 112.702 73.0362C112.131 72.7131 111.455 72.4335 110.674 72.1974C109.786 71.9288 108.926 71.8695 108.095 72.0194C107.264 72.1693 106.527 72.5064 105.884 73.0307C105.236 73.5703 104.747 74.275 104.417 75.1447L105.658 75.5198C105.93 74.9503 106.169 74.5462 106.375 74.3076C106.475 74.4212 106.563 74.5149 106.641 74.5886C106.715 74.6777 106.785 74.7491 106.852 74.8029C107.362 74.2216 107.994 73.8191 108.747 73.5955C109.515 73.3765 110.29 73.385 111.071 73.6212C111.944 73.8851 112.639 74.3793 113.155 75.1038C113.682 75.8482 113.94 76.6533 113.929 77.5192C114.254 77.5505 114.494 77.5311 114.649 77.461C114.804 77.3908 114.918 77.2332 114.992 76.9882L115.429 77.1201C115.331 77.4417 115.367 77.7951 115.534 78.1801C115.702 78.5651 115.754 78.8648 115.689 79.0793C115.624 79.2937 115.408 79.5376 115.041 79.8112C114.674 80.0847 114.442 80.3823 114.345 80.7039L113.909 80.5719C113.983 80.3269 113.975 80.1322 113.885 79.988C113.795 79.8437 113.606 79.6947 113.318 79.5408C112.843 80.2831 112.182 80.8103 111.335 81.1227C110.504 81.4397 109.652 81.4662 108.779 81.2022C107.998 80.9661 107.356 80.5463 106.853 79.943C106.35 79.3396 106.039 78.6524 105.922 77.8812L105.25 78.0292C105.202 77.7471 105.226 77.2782 105.324 76.6225L104.084 76.2474C103.876 77.1542 103.895 78.0041 104.14 78.7969C104.385 79.5898 104.812 80.2788 105.421 80.864C106.025 81.4645 106.771 81.8991 107.659 82.1676C108.441 82.4038 109.16 82.5379 109.819 82.57C110.489 82.622 111.183 82.5645 111.902 82.3974C111.473 82.7689 110.939 83.0674 110.303 83.2928C109.666 83.5183 108.977 83.644 108.233 83.67C107.505 83.7006 106.774 83.6048 106.038 83.3825C104.844 83.0213 103.749 82.5232 102.754 81.8881C101.775 81.2577 100.912 80.462 100.167 79.501C100.758 79.6463 101.293 79.5908 101.771 79.3343C102.265 79.0825 102.6 78.6656 102.776 78.0837C102.869 77.7773 102.903 77.4449 102.877 77.0862C102.262 77.5186 101.621 77.8429 100.954 78.059C100.297 78.2952 99.7927 78.36 99.4405 78.2535C99.1954 78.1794 99.0072 78.0556 98.8758 77.8822C98.7597 77.7133 98.741 77.4987 98.8197 77.2384C98.9031 76.9627 99.0498 76.7814 99.2599 76.6945C99.4701 76.6076 99.6747 76.5943 99.8738 76.6545C100.042 76.7054 100.179 76.78 100.283 76.8783C100.341 76.9627 100.408 77.0165 100.484 77.0397C100.653 77.0906 100.873 77.0819 101.144 77.0135C101.426 76.9651 101.71 76.8837 101.995 76.7694C102.296 76.6597 102.556 76.5461 102.775 76.4285C102.606 75.9929 102.345 75.7219 101.993 75.6154C101.595 75.495 101.174 75.4764 100.731 75.5598C100.288 75.6431 99.8829 75.6292 99.5153 75.5181C99.1784 75.4162 98.9221 75.2134 98.7466 74.9095C98.5663 74.621 98.5249 74.316 98.6221 73.9944ZM107.653 75.4712C108.449 76.0461 109.421 76.5072 110.57 76.8545C111.397 77.1045 112.169 77.2878 112.886 77.4043C112.882 76.7514 112.684 76.1648 112.289 75.6444C111.906 75.144 111.4 74.7989 110.772 74.609C110.206 74.4377 109.641 74.4257 109.078 74.5732C108.531 74.7253 108.056 75.0246 107.653 75.4712ZM106.959 77.7685C107.031 78.3587 107.26 78.8711 107.647 79.3056C108.034 79.7401 108.511 80.0431 109.077 80.2144C109.705 80.4043 110.32 80.3895 110.921 80.1701C111.533 79.9707 112.021 79.6001 112.386 79.0583C111.801 78.7812 111.056 78.5061 110.153 78.2329C108.958 77.8717 107.894 77.7169 106.959 77.7685Z" fill="black"/>
<path d="M86.4697 91.2943C86.7107 91.0838 87.0006 90.99 87.3392 91.0129C87.6884 91.0478 87.984 91.2039 88.226 91.4811C88.4786 91.7703 88.6581 92.134 88.7646 92.5721C88.871 93.0102 89.0611 93.3859 89.3347 93.6993C89.5557 93.9523 89.9101 94.0784 90.3977 94.0773C90.4145 93.829 90.411 93.5453 90.3873 93.2262C90.374 92.9191 90.3374 92.6218 90.2775 92.3342C90.216 92.0693 90.1274 91.8705 90.0117 91.7379L89.9146 91.6633C89.704 91.5924 89.5355 91.4846 89.4092 91.34C89.2724 91.1833 89.2003 90.9914 89.193 90.7641C89.1857 90.5368 89.2905 90.3284 89.5075 90.139C89.7123 89.9601 89.9156 89.8888 90.1173 89.9251C90.3294 89.9735 90.5197 90.0941 90.6881 90.2869C90.9197 90.552 91.069 91.027 91.136 91.7119C91.2016 92.4194 91.1693 93.1486 91.0391 93.8996C91.3764 93.775 91.6655 93.6074 91.9065 93.397C92.3645 92.997 92.6065 92.5201 92.6327 91.9663C92.6693 91.4244 92.4997 90.914 92.1239 90.435C93.2946 90.7297 94.3749 91.1883 95.3647 91.8109C96.3529 92.456 97.2575 93.2486 98.0784 94.1886C98.5836 94.7671 98.9773 95.4004 99.2596 96.0885C99.5419 96.7766 99.7114 97.4571 99.7679 98.13C99.8245 98.8028 99.7667 99.4056 99.5946 99.9383C99.4508 99.2141 99.2234 98.5524 98.9124 97.9531C98.5999 97.3763 98.1753 96.7806 97.6385 96.166C97.0281 95.467 96.3309 94.9606 95.5471 94.6467C94.7632 94.3329 93.9595 94.2275 93.1361 94.3306C92.3006 94.4442 91.5124 94.7821 90.7713 95.3443L91.6238 96.3204C92.1569 95.9823 92.5741 95.7667 92.8752 95.6737C92.8991 95.8227 92.9246 95.9492 92.9516 96.0531C92.9665 96.1675 92.9882 96.2653 93.0168 96.3466C93.7575 96.1246 94.5063 96.1185 95.2632 96.3285C96.0306 96.5505 96.6827 96.9688 97.2195 97.5834C97.8194 98.2703 98.146 99.0578 98.1993 99.9459C98.2511 100.857 98.0426 101.676 97.5738 102.404C97.8325 102.603 98.0461 102.714 98.2147 102.737C98.3832 102.759 98.5639 102.686 98.7567 102.518L99.0567 102.861C98.8036 103.083 98.646 103.401 98.5839 103.816C98.5218 104.231 98.4064 104.513 98.2376 104.66C98.0689 104.807 97.7565 104.9 97.3004 104.937C96.8443 104.974 96.4897 105.103 96.2366 105.324L95.9367 104.981C96.1295 104.812 96.226 104.643 96.2262 104.473C96.2263 104.303 96.1453 104.076 95.983 103.793C95.1864 104.17 94.3464 104.267 93.4631 104.082C92.5903 103.91 91.8539 103.48 91.254 102.793C90.7173 102.178 90.3958 101.482 90.2897 100.704C90.1836 99.9254 90.2852 99.1782 90.5944 98.462L89.9467 98.2311C90.0553 97.9663 90.3251 97.582 90.7561 97.0782L89.9036 96.102C89.2467 96.7607 88.8118 97.491 88.5988 98.293C88.3858 99.0951 88.382 99.9056 88.5874 100.725C88.7807 101.554 89.1826 102.318 89.793 103.017C90.3298 103.632 90.8689 104.128 91.4104 104.505C91.9504 104.904 92.5694 105.224 93.2676 105.464C92.7061 105.55 92.0958 105.52 91.4367 105.374C90.7775 105.227 90.1261 104.968 89.4822 104.595C88.8489 104.235 88.2796 103.765 87.7745 103.187C86.9536 102.247 86.29 101.244 85.7838 100.178C85.2881 99.1237 84.9792 97.9915 84.8569 96.7813C85.2809 97.2182 85.7639 97.4549 86.3057 97.4916C86.858 97.5403 87.3632 97.3647 87.8211 96.9647C88.0621 96.7542 88.2671 96.4903 88.436 96.1729C87.6849 96.2128 86.9692 96.1474 86.2891 95.9766C85.6074 95.8285 85.1455 95.6158 84.9034 95.3386C84.7351 95.1458 84.6412 94.941 84.6218 94.7242C84.613 94.5195 84.711 94.3277 84.9159 94.1488C85.1328 93.9594 85.3534 93.8836 85.5776 93.9214C85.8019 93.9593 85.9824 94.0565 86.1192 94.2132C86.235 94.3457 86.3108 94.4813 86.3468 94.6198C86.3512 94.7221 86.3798 94.8034 86.4324 94.8637C86.5482 94.9963 86.7392 95.1056 87.0055 95.1916C87.2703 95.3003 87.554 95.3818 87.8565 95.4363C88.1695 95.5028 88.4501 95.5445 88.6985 95.5613C88.7862 95.1023 88.7091 94.7342 88.467 94.457C88.1934 94.1437 87.8467 93.9048 87.4269 93.7403C87.0071 93.5758 86.6709 93.349 86.4183 93.0598C86.1868 92.7946 86.0772 92.4867 86.0896 92.136C86.0899 91.7959 86.2166 91.5153 86.4697 91.2943ZM93.3409 97.3381C93.7103 98.2476 94.2897 99.1542 95.079 100.058C95.6473 100.709 96.2044 101.274 96.7503 101.753C97.094 101.198 97.2369 100.595 97.1788 99.945C97.1192 99.3172 96.8736 98.7563 96.4421 98.2622C96.0527 97.8163 95.5804 97.5066 95.0252 97.3329C94.4805 97.1714 93.9191 97.1731 93.3409 97.3381ZM91.5332 98.9167C91.2813 99.4553 91.204 100.011 91.3013 100.585C91.3986 101.159 91.6419 101.668 92.0313 102.114C92.4628 102.608 92.9916 102.922 93.6176 103.055C94.2421 103.211 94.8525 103.155 95.4488 102.89C95.1001 102.344 94.6153 101.716 93.9944 101.005C93.1735 100.065 92.3531 99.3691 91.5332 98.9167Z" fill="black"/>
<path d="M66.9896 99.5097C67.3056 99.4592 67.601 99.5335 67.8759 99.7326C68.1533 99.9475 68.321 100.237 68.3791 100.6C68.4398 100.979 68.399 101.383 68.2567 101.811C68.1145 102.238 68.0762 102.658 68.1419 103.068C68.1949 103.4 68.4284 103.695 68.8423 103.953C68.9883 103.751 69.1359 103.509 69.2851 103.226C69.4368 102.959 69.5635 102.687 69.6653 102.412C69.7538 102.154 69.7842 101.939 69.7564 101.765L69.7137 101.65C69.5728 101.479 69.4872 101.298 69.4569 101.108C69.4241 100.903 69.4648 100.702 69.5792 100.505C69.6937 100.309 69.893 100.188 70.1774 100.142C70.446 100.099 70.6561 100.147 70.8078 100.285C70.962 100.438 71.0593 100.641 71.0997 100.894C71.1553 101.242 71.0298 101.724 70.7232 102.34C70.4034 102.974 69.989 103.575 69.4802 104.143C69.8322 104.216 70.1662 104.227 70.4822 104.177C71.0826 104.081 71.5408 103.805 71.8568 103.349C72.1754 102.91 72.3025 102.387 72.2381 101.782C73.0741 102.653 73.7464 103.614 74.255 104.667C74.7503 105.739 75.0965 106.89 75.2935 108.123C75.4148 108.881 75.4125 109.627 75.2866 110.36C75.1608 111.093 74.9433 111.76 74.6342 112.36C74.3251 112.96 73.9563 113.441 73.5278 113.801C73.7902 113.111 73.9485 112.429 74.003 111.756C74.0441 111.101 74.0003 110.371 73.8715 109.565C73.7249 108.649 73.4027 107.85 72.9048 107.168C72.4069 106.486 71.7816 105.97 71.029 105.621C70.2606 105.274 69.4131 105.142 68.4867 105.225L68.6913 106.505C69.3226 106.501 69.7906 106.54 70.0952 106.621C70.0364 106.76 69.9909 106.88 69.9586 106.983C69.9106 107.088 69.8771 107.182 69.8581 107.266C70.6038 107.471 71.2417 107.863 71.7719 108.443C72.3046 109.038 72.6353 109.739 72.7641 110.544C72.9081 111.445 72.7671 112.286 72.3411 113.067C71.9018 113.866 71.2903 114.45 70.5066 114.818C70.6203 115.124 70.7426 115.332 70.8734 115.44C71.0042 115.549 71.196 115.583 71.4488 115.543L71.5208 115.993C71.189 116.046 70.8866 116.232 70.6135 116.551C70.3405 116.87 70.0934 117.048 69.8722 117.083C69.651 117.118 69.3372 117.031 68.9309 116.82C68.5246 116.61 68.1555 116.531 67.8237 116.584L67.7517 116.134C68.0045 116.093 68.1761 116.001 68.2665 115.857C68.3569 115.713 68.4084 115.478 68.4211 115.152C67.5458 115.049 66.7828 114.685 66.1319 114.06C65.4836 113.45 65.0875 112.695 64.9435 111.795C64.8146 110.989 64.9117 110.228 65.2347 109.512C65.5578 108.796 66.0403 108.217 66.6825 107.774L66.2559 107.234C66.4885 107.068 66.9211 106.885 67.5537 106.687L67.3491 105.407C66.4429 105.617 65.6867 106.005 65.0806 106.572C64.4745 107.138 64.0412 107.823 63.7807 108.627C63.5044 109.432 63.4396 110.293 63.5861 111.21C63.7149 112.016 63.9088 112.722 64.1679 113.328C64.4136 113.954 64.7687 114.553 65.2332 115.127C64.7112 114.902 64.2098 114.553 63.7289 114.079C63.248 113.605 62.8335 113.04 62.4854 112.382C62.1398 111.741 61.9063 111.041 61.7851 110.282C61.5881 109.05 61.5579 107.848 61.6945 106.676C61.8337 105.519 62.1725 104.395 62.7111 103.305C62.8387 103.9 63.1224 104.357 63.5622 104.676C64.0045 105.01 64.5259 105.129 65.1262 105.033C65.4422 104.983 65.756 104.868 66.0676 104.688C65.4098 104.323 64.8379 103.888 64.352 103.383C63.8528 102.895 63.5741 102.47 63.516 102.107C63.4756 101.854 63.5047 101.63 63.6033 101.436C63.7044 101.258 63.8893 101.148 64.1579 101.105C64.4423 101.059 64.6695 101.112 64.8394 101.263C65.0094 101.414 65.1108 101.592 65.1437 101.798C65.1715 101.972 65.1639 102.127 65.1209 102.263C65.0703 102.352 65.0513 102.436 65.064 102.515C65.0917 102.689 65.1957 102.883 65.3758 103.097C65.5426 103.33 65.7397 103.55 65.9672 103.756C66.1972 103.979 66.413 104.163 66.6146 104.309C66.9325 103.967 67.0624 103.614 67.0043 103.25C66.9386 102.84 66.7715 102.453 66.503 102.091C66.2344 101.729 66.0699 101.358 66.0092 100.979C65.9537 100.631 66.0242 100.312 66.2207 100.022C66.4015 99.7334 66.6578 99.5628 66.9896 99.5097ZM69.6068 108.278C69.4373 109.245 69.4473 110.321 69.6368 111.506C69.7732 112.359 69.9456 113.134 70.1541 113.83C70.7399 113.542 71.1808 113.107 71.4766 112.525C71.7592 111.961 71.8487 111.355 71.7451 110.707C71.6516 110.123 71.4156 109.61 71.0371 109.168C70.6612 108.742 70.1844 108.445 69.6068 108.278ZM67.2369 108.657C66.7376 108.98 66.377 109.411 66.1552 109.948C65.9333 110.486 65.8691 111.047 65.9625 111.632C66.0661 112.28 66.3479 112.826 66.8079 113.271C67.2547 113.734 67.8013 114.011 68.4478 114.103C68.4415 113.455 68.3639 112.666 68.2148 111.734C68.0178 110.501 67.6918 109.476 67.2369 108.657Z" fill="black"/>
<path d="M46.1188 96.1369C46.4134 96.2617 46.6244 96.4814 46.7517 96.796C46.8728 97.1254 46.8616 97.4595 46.718 97.7983C46.5682 98.1519 46.3195 98.4723 45.972 98.7594C45.6244 99.0466 45.3695 99.3817 45.2072 99.7647C45.0761 100.074 45.1175 100.448 45.3315 100.886C45.5622 100.793 45.8159 100.666 46.0926 100.505C46.363 100.359 46.6145 100.196 46.8469 100.016C47.0584 99.8453 47.1985 99.6788 47.2671 99.5167L47.2919 99.3969C47.2636 99.1764 47.287 98.9777 47.3619 98.801C47.443 98.6094 47.5842 98.4608 47.7855 98.3549C47.9868 98.249 48.22 98.2522 48.4851 98.3646C48.7356 98.4707 48.8885 98.6224 48.944 98.8197C48.9932 99.0317 48.9678 99.2555 48.8679 99.4912C48.7306 99.8153 48.3686 100.157 47.7818 100.517C47.174 100.885 46.504 101.174 45.7716 101.385C46.0311 101.634 46.3081 101.821 46.6027 101.946C47.1626 102.183 47.6973 102.193 48.2069 101.974C48.7103 101.77 49.0953 101.395 49.362 100.847C49.6084 102.029 49.6679 103.201 49.5403 104.364C49.3918 105.534 49.074 106.694 48.5871 107.844C48.2875 108.551 47.8899 109.182 47.3943 109.736C46.8986 110.291 46.3605 110.74 45.78 111.085C45.1994 111.43 44.632 111.641 44.0777 111.719C44.6662 111.274 45.1621 110.78 45.5654 110.238C45.9476 109.705 46.298 109.063 46.6163 108.312C46.9784 107.457 47.1293 106.609 47.0691 105.767C47.0089 104.924 46.7526 104.156 46.3001 103.46C45.8329 102.758 45.1846 102.197 44.3551 101.776L43.8495 102.969C44.3866 103.301 44.7628 103.582 44.978 103.812C44.8544 103.899 44.7518 103.977 44.6701 104.046C44.5737 104.11 44.4952 104.172 44.4345 104.233C44.9579 104.803 45.2905 105.474 45.4323 106.246C45.5679 107.033 45.4766 107.803 45.1582 108.554C44.8024 109.394 44.2367 110.032 43.4612 110.468C42.6647 110.912 41.8365 111.083 40.9768 110.979C40.9109 111.299 40.9046 111.539 40.9578 111.701C41.0109 111.862 41.1554 111.993 41.3911 112.093L41.2132 112.513C40.9038 112.382 40.5488 112.379 40.148 112.504C39.7472 112.63 39.4437 112.649 39.2375 112.562C39.0312 112.474 38.8118 112.234 38.579 111.84C38.3463 111.446 38.0753 111.183 37.7659 111.052L37.9438 110.632C38.1795 110.732 38.3739 110.745 38.527 110.671C38.68 110.597 38.8484 110.425 39.0322 110.155C38.345 109.603 37.8915 108.89 37.6715 108.014C37.4452 107.154 37.51 106.304 37.8658 105.464C38.1842 104.713 38.6702 104.119 39.3239 103.684C39.9776 103.249 40.6941 103.013 41.4734 102.979L41.3981 102.295C41.6837 102.277 42.1473 102.352 42.7888 102.519L43.2944 101.326C42.415 101.023 41.568 100.951 40.7535 101.11C39.939 101.269 39.2083 101.619 38.5613 102.162C37.8996 102.698 37.3877 103.394 37.0257 104.248C36.7073 104.999 36.497 105.701 36.3946 106.353C36.2713 107.013 36.2542 107.709 36.3433 108.442C36.02 107.975 35.7803 107.413 35.6242 106.756C35.4681 106.099 35.4169 105.4 35.4706 104.658C35.518 103.931 35.6916 103.214 35.9912 102.506C36.4781 101.357 37.0904 100.322 37.8283 99.4011C38.5599 98.4947 39.4433 97.7221 40.4785 97.0834C40.2708 97.6557 40.2688 98.1935 40.4725 98.6969C40.6701 99.215 41.0487 99.5927 41.6086 99.8299C41.9032 99.9548 42.2302 100.024 42.5895 100.037C42.2254 99.3788 41.9716 98.7065 41.828 98.0201C41.6635 97.3422 41.653 96.8338 41.7965 96.495C41.8964 96.2593 42.0396 96.0853 42.2261 95.9732C42.4064 95.8758 42.6218 95.8802 42.8722 95.9863C43.1374 96.0987 43.3019 96.264 43.3659 96.4822C43.4298 96.7005 43.4212 96.9053 43.34 97.0968C43.2714 97.2589 43.1826 97.3864 43.0737 97.4793C42.9836 97.5279 42.9229 97.5891 42.8917 97.6628C42.823 97.8248 42.8082 98.0444 42.8471 98.3216C42.8651 98.6073 42.9157 98.898 42.9988 99.1939C43.0758 99.5045 43.1609 99.7752 43.2543 100.006C43.7055 99.8843 44.0029 99.6541 44.1464 99.3153C44.3087 98.9322 44.3722 98.516 44.3367 98.0665C44.3012 97.6171 44.3584 97.2156 44.5082 96.862C44.6456 96.5379 44.8746 96.3048 45.1955 96.1627C45.5016 96.0144 45.8094 96.0058 46.1188 96.1369ZM43.6843 104.958C43.0276 105.688 42.4652 106.605 41.9971 107.71C41.66 108.505 41.3952 109.253 41.2027 109.954C41.8521 110.02 42.4567 109.886 43.0162 109.549C43.5548 109.221 43.9521 108.755 44.208 108.151C44.439 107.606 44.5112 107.046 44.4248 106.471C44.3322 105.91 44.0854 105.406 43.6843 104.958ZM41.4745 104.022C40.88 104.031 40.346 104.204 39.8726 104.542C39.3992 104.88 39.047 105.322 38.816 105.867C38.5601 106.471 38.5091 107.083 38.6629 107.705C38.7957 108.334 39.112 108.859 39.6116 109.28C39.9497 108.728 40.3029 108.017 40.6712 107.148C41.1581 105.999 41.4258 104.957 41.4745 104.022Z" fill="black"/>
</svg>
